<svg xmlns="http://www.w3.org/2000/svg" viewBox="0 0 100 100">
  <defs>
    <radialGradient id="bg" cx="50%" cy="40%" r="60%">
      <stop offset="0%" stop-color="#e0f7fa"/>
      <stop offset="100%" stop-color="#f3e5f5"/>
    </radialGradient>
    <radialGradient id="b1" cx="40%" cy="35%" r="50%">
      <stop offset="0%" stop-color="#a8e6cf"/>
      <stop offset="100%" stop-color="#7dcea0"/>
    </radialGradient>
    <radialGradient id="b2" cx="40%" cy="35%" r="50%">
      <stop offset="0%" stop-color="#ffb7b2"/>
      <stop offset="100%" stop-color="#e8918b"/>
    </radialGradient>
    <radialGradient id="b3" cx="40%" cy="35%" r="50%">
      <stop offset="0%" stop-color="#87ceeb"/>
      <stop offset="100%" stop-color="#5dade2"/>
    </radialGradient>
  </defs>
  <rect width="100" height="100" rx="20" fill="url(#bg)"/>
  <circle cx="35" cy="38" r="16" fill="url(#b1)" opacity="0.9"/>
  <circle cx="65" cy="35" r="14" fill="url(#b2)" opacity="0.9"/>
  <circle cx="50" cy="62" r="18" fill="url(#b3)" opacity="0.85"/>
  <!-- 表情 -->
  <circle cx="31" cy="36" r="2" fill="#2d3436"/>
  <circle cx="39" cy="36" r="2" fill="#2d3436"/>
  <path d="M31 41 Q35 44 39 41" stroke="#2d3436" fill="none" stroke-width="1.2"/>
  <circle cx="61" cy="33" r="1.8" fill="#2d3436"/>
  <circle cx="69" cy="33" r="1.8" fill="#2d3436"/>
  <path d="M61 37 Q65 40 69 37" stroke="#2d3436" fill="none" stroke-width="1.2"/>
  <circle cx="46" cy="60" r="2.2" fill="#2d3436"/>
  <circle cx="54" cy="60" r="2.2" fill="#2d3436"/>
  <path d="M46 65 Q50 69 54 65" stroke="#2d3436" fill="none" stroke-width="1.2"/>
</svg>
